# xmcd
#
# Track frame offsets:
#	150
#	12271
#	27060
#	37919
#	51626
#	68615
#	82234
#	95876
#	109008
#	121681
#	132274
#	145814
#
# Disc length: 2101 seconds
#
# Revision: 1
# Processed by: cddbd v1.5.1PL0 Copyright (c) Steve Scherf et al.
# Submitted via: audiograbber 1.81.02
#
DISCID=a008330c
DTITLE=Huracanes del norte - Experiencia y juventud
DYEAR=2004
DGENRE=Grupero
TTITLE0=La hielera
TTITLE1=Señor cantinero
TTITLE2=Nueve dias
TTITLE3=Inocente otra vez
TTITLE4=Tu ponte en mi lugar
TTITLE5=Mis veinte novias
TTITLE6=El segundo lugar
TTITLE7=Te perdone una vez
TTITLE8=Me curaron otros labios
TTITLE9=Cinco fronteras
TTITLE10=Mis ultimos besos
TTITLE11=Andamos perdidos
EXTD=
EXTT0=
EXTT1=
EXTT2=
EXTT3=
EXTT4=
EXTT5=
EXTT6=
EXTT7=
EXTT8=
EXTT9=
EXTT10=
EXTT11=
PLAYORDER=
